<svg id="visual" viewBox="0 0 1200 700" width="1200" height="700" xmlns="http://www.w3.org/2000/svg" xmlns:xlink="http://www.w3.org/1999/xlink" version="1.1"><rect x="0" y="0" width="1200" height="700" fill="#fac4c0"></rect><path d="M0 353L25 369C50 385 100 417 150 422.7C200 428.3 250 407.7 300 413.8C350 420 400 453 450 455.3C500 457.7 550 429.3 600 408.2C650 387 700 373 750 362.8C800 352.7 850 346.3 900 366.2C950 386 1000 432 1050 473.8C1100 515.7 1150 553.3 1175 572.2L1200 591L1200 0L1175 0C1150 0 1100 0 1050 0C1000 0 950 0 900 0C850 0 800 0 750 0C700 0 650 0 600 0C550 0 500 0 450 0C400 0 350 0 300 0C250 0 200 0 150 0C100 0 50 0 25 0L0 0Z" fill="#daae51"></path><path d="M0 545L25 539.2C50 533.3 100 521.7 150 500.2C200 478.7 250 447.3 300 409.5C350 371.7 400 327.3 450 345.3C500 363.3 550 443.7 600 470.7C650 497.7 700 471.3 750 428.2C800 385 850 325 900 295.3C950 265.7 1000 266.3 1050 294C1100 321.7 1150 376.3 1175 403.7L1200 431L1200 0L1175 0C1150 0 1100 0 1050 0C1000 0 950 0 900 0C850 0 800 0 750 0C700 0 650 0 600 0C550 0 500 0 450 0C400 0 350 0 300 0C250 0 200 0 150 0C100 0 50 0 25 0L0 0Z" fill="#df9e4a"></path><path d="M0 435L25 412.7C50 390.3 100 345.7 150 313.8C200 282 250 263 300 288.7C350 314.3 400 384.7 450 413C500 441.3 550 427.7 600 397.7C650 367.7 700 321.3 750 319.3C800 317.3 850 359.7 900 361.3C950 363 1000 324 1050 321.2C1100 318.3 1150 351.7 1175 368.3L1200 385L1200 0L1175 0C1150 0 1100 0 1050 0C1000 0 950 0 900 0C850 0 800 0 750 0C700 0 650 0 600 0C550 0 500 0 450 0C400 0 350 0 300 0C250 0 200 0 150 0C100 0 50 0 25 0L0 0Z" fill="#e38d47"></path><path d="M0 340L25 322C50 304 100 268 150 279.8C200 291.7 250 351.3 300 377.3C350 403.3 400 395.7 450 368C500 340.3 550 292.7 600 270.7C650 248.7 700 252.3 750 241C800 229.7 850 203.3 900 227.8C950 252.3 1000 327.7 1050 355.3C1100 383 1150 363 1175 353L1200 343L1200 0L1175 0C1150 0 1100 0 1050 0C1000 0 950 0 900 0C850 0 800 0 750 0C700 0 650 0 600 0C550 0 500 0 450 0C400 0 350 0 300 0C250 0 200 0 150 0C100 0 50 0 25 0L0 0Z" fill="#e57c49"></path><path d="M0 162L25 159.2C50 156.3 100 150.7 150 156C200 161.3 250 177.7 300 185.2C350 192.7 400 191.3 450 184.5C500 177.7 550 165.3 600 157C650 148.7 700 144.3 750 151C800 157.7 850 175.3 900 175.5C950 175.7 1000 158.3 1050 151.5C1100 144.7 1150 148.3 1175 150.2L1200 152L1200 0L1175 0C1150 0 1100 0 1050 0C1000 0 950 0 900 0C850 0 800 0 750 0C700 0 650 0 600 0C550 0 500 0 450 0C400 0 350 0 300 0C250 0 200 0 150 0C100 0 50 0 25 0L0 0Z" fill="#e56a4e"></path><path d="M0 127L25 148.2C50 169.3 100 211.7 150 212.5C200 213.3 250 172.7 300 147.5C350 122.3 400 112.7 450 129.2C500 145.7 550 188.3 600 197.8C650 207.3 700 183.7 750 188.8C800 194 850 228 900 241C950 254 1000 246 1050 231.2C1100 216.3 1150 194.7 1175 183.8L1200 173L1200 0L1175 0C1150 0 1100 0 1050 0C1000 0 950 0 900 0C850 0 800 0 750 0C700 0 650 0 600 0C550 0 500 0 450 0C400 0 350 0 300 0C250 0 200 0 150 0C100 0 50 0 25 0L0 0Z" fill="#e35855"></path><path d="M0 66L25 74.5C50 83 100 100 150 108.7C200 117.3 250 117.7 300 129.7C350 141.7 400 165.3 450 162.8C500 160.3 550 131.7 600 131.5C650 131.3 700 159.7 750 166.2C800 172.7 850 157.3 900 158.3C950 159.3 1000 176.7 1050 181.7C1100 186.7 1150 179.3 1175 175.7L1200 172L1200 0L1175 0C1150 0 1100 0 1050 0C1000 0 950 0 900 0C850 0 800 0 750 0C700 0 650 0 600 0C550 0 500 0 450 0C400 0 350 0 300 0C250 0 200 0 150 0C100 0 50 0 25 0L0 0Z" fill="#dd455e"></path><path d="M0 62L25 63.5C50 65 100 68 150 75.7C200 83.3 250 95.7 300 105.3C350 115 400 122 450 113.3C500 104.7 550 80.3 600 80.7C650 81 700 106 750 114C800 122 850 113 900 99C950 85 1000 66 1050 67.5C1100 69 1150 91 1175 102L1200 113L1200 0L1175 0C1150 0 1100 0 1050 0C1000 0 950 0 900 0C850 0 800 0 750 0C700 0 650 0 600 0C550 0 500 0 450 0C400 0 350 0 300 0C250 0 200 0 150 0C100 0 50 0 25 0L0 0Z" fill="#d53369"></path></svg>