<svg id="visual" viewBox="0 0 1200 700" width="1200" height="700" xmlns="http://www.w3.org/2000/svg" xmlns:xlink="http://www.w3.org/1999/xlink" version="1.1"><rect width="1200" height="700" fill="#fac4c0"></rect><g><g transform="translate(220 526)"><path d="M64.8 -16.9C76.6 15.1 73.6 56.1 50.5 74C27.3 91.9 -15.9 86.6 -46.9 64.2C-78 41.7 -96.8 2.1 -87 -27.4C-77.1 -56.8 -38.6 -76 -6 -74C26.5 -72.1 53.1 -49 64.8 -16.9Z" fill="none" stroke="#daae51" stroke-width="3"></path></g><g transform="translate(739 108)"><path d="M43.5 -12.4C48.7 1.8 39.9 22.3 23.3 35.1C6.7 47.9 -17.7 52.9 -29.3 43.7C-40.9 34.4 -39.8 10.9 -32.7 -5.8C-25.7 -22.5 -12.9 -32.5 3.1 -33.6C19.1 -34.6 38.3 -26.6 43.5 -12.4Z" fill="none" stroke="#daae51" stroke-width="3"></path></g><g transform="translate(972 438)"><path d="M12.3 -4C13.5 -0.2 10.5 5 5.9 8.5C1.2 11.9 -5 13.6 -8.9 11.1C-12.8 8.5 -14.5 1.6 -12.7 -3.1C-10.8 -7.7 -5.4 -10.2 0.1 -10.2C5.5 -10.2 11.1 -7.8 12.3 -4Z" fill="none" stroke="#daae51" stroke-width="3"></path></g><g transform="translate(1174 10)"><path d="M69.8 -17.1C78.9 5.3 66.7 40.2 46.4 52.2C26.1 64.2 -2.4 53.3 -23.4 36.9C-44.4 20.5 -58 -1.4 -52.9 -18.3C-47.7 -35.3 -23.9 -47.3 3.2 -48.3C30.3 -49.4 60.7 -39.5 69.8 -17.1Z" fill="none" stroke="#daae51" stroke-width="3"></path></g><g transform="translate(357 6)"><path d="M24.5 -8.3C27.7 2 23.6 14.4 12.4 24.2C1.2 34 -17 41.2 -26.3 34.8C-35.6 28.3 -36.1 8.2 -30.2 -5.7C-24.4 -19.7 -12.2 -27.5 -0.8 -27.2C10.6 -27 21.2 -18.7 24.5 -8.3Z" fill="none" stroke="#daae51" stroke-width="3"></path></g><g transform="translate(710 472)"><path d="M44.7 -20.3C49.7 0.8 39.8 20.9 24.7 31.2C9.7 41.4 -10.4 41.7 -29.3 30.4C-48.1 19 -65.7 -4 -60.6 -25.3C-55.5 -46.6 -27.8 -66.1 -3.9 -64.8C19.9 -63.6 39.7 -41.5 44.7 -20.3Z" fill="none" stroke="#daae51" stroke-width="3"></path></g><g transform="translate(149 151)"><path d="M32.1 -9C37.4 5.8 34.5 24.7 23.9 32.2C13.3 39.8 -5.1 36 -16.7 26.7C-28.3 17.4 -33.1 2.5 -29.2 -10.4C-25.3 -23.3 -12.7 -34.3 0.4 -34.5C13.4 -34.6 26.9 -23.8 32.1 -9Z" fill="none" stroke="#daae51" stroke-width="3"></path></g><g transform="translate(1064 694)"><path d="M7.9 -3C8.8 0.2 7.1 3.9 4.1 6.2C1.1 8.5 -3.3 9.5 -6.3 7.6C-9.3 5.7 -10.8 0.8 -9.5 -2.9C-8.3 -6.6 -4.1 -9.2 -0.3 -9.1C3.5 -9 7 -6.2 7.9 -3Z" fill="none" stroke="#daae51" stroke-width="3"></path></g><g transform="translate(503 620)"><path d="M18.5 -6.8C20.3 -0.4 15.6 7.3 9.2 11.8C2.7 16.3 -5.5 17.6 -10.8 13.9C-16.2 10.3 -18.7 1.7 -16.4 -5.3C-14.1 -12.4 -7.1 -17.9 0.6 -18.1C8.3 -18.3 16.7 -13.2 18.5 -6.8Z" fill="none" stroke="#daae51" stroke-width="3"></path></g><g transform="translate(411 340)"><path d="M47.3 -16C52.2 -0.5 40.6 19.7 20.9 35.7C1.1 51.8 -26.8 63.5 -41.4 53.7C-56 43.9 -57.3 12.4 -48.2 -9C-39 -30.4 -19.5 -41.8 0.9 -42.1C21.3 -42.4 42.5 -31.5 47.3 -16Z" fill="none" stroke="#daae51" stroke-width="3"></path></g><g transform="translate(10 674)"><path d="M34 -11.2C38.9 4.1 34.1 22.3 23.4 29.4C12.7 36.6 -4.1 32.6 -17.7 23.1C-31.3 13.5 -41.7 -1.7 -38.3 -15C-34.8 -28.3 -17.4 -39.7 -1.4 -39.2C14.5 -38.8 29.1 -26.5 34 -11.2Z" fill="none" stroke="#daae51" stroke-width="3"></path></g></g></svg>